<?xml version="1.0" encoding="UTF-8"?> <svg xmlns="http://www.w3.org/2000/svg" width="118" height="112.357" viewBox="0 0 118 112.357"><g id="Alianzas_t" transform="translate(-1349 -1065.643)"><g id="Alianzas" transform="translate(1368.73 1065.643)"><path id="Trazado_389" data-name="Trazado 389" d="M1381.2,867.055c-2.292.687-5.168,1.507-8,2.2a11.924,11.924,0,0,0-8.37-7.422l-23.217-5.656.2-.765a2.334,2.334,0,0,0-1.679-2.839l-13.178-3.4a2.334,2.334,0,0,0-2.907,2.047l-2.4,26.15a2.336,2.336,0,0,0,2.092,2.536l9.51.951c.079.008.157.012.235.012a2.332,2.332,0,0,0,2.249-1.725c5.122,2.492,17.752,8.246,25.193,8.246,7.275,0,21.441-6.969,29.24-11.122a4.243,4.243,0,0,0,.964-6.784A10.089,10.089,0,0,0,1381.2,867.055Zm-54.692,8.442,1.935-21.112,8.265,2.131-4.989,19.5Zm34.418,7.23c-6.242,0-18.432-5.422-24.009-8.195l3.537-13.828,23.268,5.668a7.276,7.276,0,0,1,4.841,3.9c-.234.043-.466.085-.694.124-6.493,1.1-16.636-2.57-16.738-2.607a2.334,2.334,0,0,0-1.608,4.383c.462.17,11.4,4.139,19.127,2.827a129.108,129.108,0,0,0,13.888-3.472,5.417,5.417,0,0,1,4.884.916C1375.245,878.889,1365.364,882.727,1360.925,882.727Z" transform="translate(-1321.637 -821.512)" fill="#fff"></path><path id="Trazado_390" data-name="Trazado 390" d="M1402.134,809.307l-9.51-.95a2.343,2.343,0,0,0-2.483,1.714c-5.122-2.492-17.751-8.247-25.192-8.247-7.273,0-21.44,6.969-29.239,11.122a4.242,4.242,0,0,0-.964,6.785,10.093,10.093,0,0,0,9.929,2.435c2.292-.687,5.168-1.507,8-2.2a11.922,11.922,0,0,0,8.371,7.422l23.217,5.656-.2.766a2.333,2.333,0,0,0,1.679,2.839l13.178,3.4a2.333,2.333,0,0,0,2.907-2.047l2.4-26.15A2.336,2.336,0,0,0,1402.134,809.307Zm-39.983,13.54a7.276,7.276,0,0,1-4.841-3.9c.234-.043.466-.085.694-.124,6.5-1.1,16.636,2.571,16.738,2.608a2.334,2.334,0,0,0,1.608-4.383c-.462-.17-11.405-4.138-19.128-2.828a129.209,129.209,0,0,0-13.887,3.473,5.421,5.421,0,0,1-4.884-.916c12.18-6.447,22.06-10.284,26.5-10.284,6.241,0,18.431,5.422,24.008,8.2l-3.537,13.828Zm35.281,11.987-8.264-2.13,4.989-19.5,5.21.521Z" transform="translate(-1326.561 -801.824)" fill="#fff"></path></g><text id="Alianzas-2" data-name="Alianzas" transform="translate(1408 1171)" fill="#fff" font-size="26" font-family="MuseoSans-500, Museo Sans" font-weight="500" letter-spacing="0.1em"><tspan x="-58.058" y="0">Alianzas</tspan></text></g></svg> 