<?xml version="1.0" encoding="UTF-8"?> <svg xmlns="http://www.w3.org/2000/svg" id="Grupo_18" data-name="Grupo 18" width="79.445" height="54.119" viewBox="0 0 79.445 54.119"><g id="Grupo_17" data-name="Grupo 17" transform="translate(28.076 14.74)"><path id="Trazado_385" data-name="Trazado 385" d="M530.532,600.854a2.334,2.334,0,0,1-2.334-2.334v-20.25a2.334,2.334,0,0,1,4.669,0v20.25A2.334,2.334,0,0,1,530.532,600.854Z" transform="translate(-519.519 -575.935)" fill="#2e3645"></path><path id="Trazado_386" data-name="Trazado 386" d="M524.34,613.459a2.327,2.327,0,0,1-1.651-.683L514.01,604.1a2.334,2.334,0,0,1,3.3-3.3l7.028,7.028,7.028-7.028a2.334,2.334,0,0,1,3.3,3.3l-8.679,8.679A2.327,2.327,0,0,1,524.34,613.459Z" transform="translate(-513.326 -586.003)" fill="#2e3645"></path></g><path id="Trazado_387" data-name="Trazado 387" d="M525.429,604.8H480.17a14.952,14.952,0,0,1-3.361-29.521,27.2,27.2,0,0,1,26.94-24.6,26.892,26.892,0,0,1,24.644,15.884,19.232,19.232,0,0,1-2.963,38.235Zm-21.68-49.45a22.493,22.493,0,0,0-22.38,21.98,2.335,2.335,0,0,1-2.127,2.283,10.28,10.28,0,0,0,.927,20.518h45.259a14.563,14.563,0,0,0,1.158-29.08,2.335,2.335,0,0,1-1.991-1.475A22.264,22.264,0,0,0,503.749,555.347Z" transform="translate(-465.218 -550.678)" fill="#2e3645"></path></svg> 