<?xml version="1.0" encoding="UTF-8"?> <svg xmlns="http://www.w3.org/2000/svg" width="146" height="114.992" viewBox="0 0 146 114.992"><g id="Directorio_t" transform="translate(-1335 -619.008)"><path id="Directorio" d="M1396.706,282.441H1368.23l-3.45-4.192a9.76,9.76,0,0,0-7.555-3.566h-20.462a6.26,6.26,0,0,0-6.253,6.253v1.5h-.993a6.258,6.258,0,0,0-6.251,6.251v42.677a2.335,2.335,0,0,0,2.334,2.334h66.374a7.074,7.074,0,0,0,7.066-7.066v-41.86A2.335,2.335,0,0,0,1396.706,282.441Zm-9.58,46.592h-59.191V288.69a1.584,1.584,0,0,1,1.583-1.583h20.461a5.1,5.1,0,0,1,3.953,1.866l4.15,5.04a2.335,2.335,0,0,0,1.8.85h27.243Zm7.245-2.4a2.4,2.4,0,0,1-2.4,2.4h-.18v-36.5a2.334,2.334,0,0,0-2.334-2.334h-28.476l-3.45-4.19a9.755,9.755,0,0,0-7.556-3.567h-14.8v-1.5a1.585,1.585,0,0,1,1.584-1.584h20.462a5.106,5.106,0,0,1,3.951,1.866l4.149,5.042a2.336,2.336,0,0,0,1.8.851h27.244Z" transform="translate(46.416 344.325)" fill="#fff"></path><text id="Directorio-2" data-name="Directorio" transform="translate(1408 727)" fill="#fff" font-size="26" font-family="MuseoSans-500, Museo Sans" font-weight="500" letter-spacing="0.1em"><tspan x="-72.709" y="0">Directorio</tspan></text></g></svg> 