<?xml version="1.0" encoding="UTF-8"?> <svg xmlns="http://www.w3.org/2000/svg" width="102" height="116.393" viewBox="0 0 102 116.393"><g id="Galería_t" transform="translate(-759 -617.607)"><path id="Galería" d="M831.237,283.286H821.129l-.844-8.889a2.334,2.334,0,0,0-2.544-2.1l-60.011,5.7a2.334,2.334,0,0,0-2.1,2.544l4.359,45.94a2.332,2.332,0,0,0,2.323,2.114c.074,0,.148,0,.221-.01L768.62,328v3.77a2.334,2.334,0,0,0,2.334,2.334h60.283a2.334,2.334,0,0,0,2.334-2.334V285.62A2.334,2.334,0,0,0,831.237,283.286ZM828.9,308.48l-9.065-7.123a2.335,2.335,0,0,0-2.863-.016l-10.583,8.118L794.3,296.386a2.336,2.336,0,0,0-1.668-.749,2.284,2.284,0,0,0-1.7.683l-17.646,17.646V287.955H828.9Zm-64.49,15.229-3.918-41.292,55.363-5.255.582,6.124H770.954a2.334,2.334,0,0,0-2.334,2.334v37.688Zm8.876,5.725v-9.549l.343.343,18.888-18.889,11.889,12.854a2.334,2.334,0,0,0,3.134.267l10.834-8.31,10.525,8.269v15.016Z" transform="translate(15.789 345.324)" fill="#fff"></path><text id="Galería-2" data-name="Galería" transform="translate(810 727)" fill="#fff" font-size="26" font-family="MuseoSans-500, Museo Sans" font-weight="500" letter-spacing="0.1em"><tspan x="-50.18" y="0">Galería</tspan></text></g></svg> 