<?xml version="1.0" encoding="UTF-8"?> <svg xmlns="http://www.w3.org/2000/svg" width="211.32" height="37.319" viewBox="0 0 211.32 37.319"><g id="Instituciones_ON" transform="translate(-65.68 -41.718)"><text id="Instituciones" transform="translate(126 73)" fill="#fff" font-size="20" font-family="MuseoSans-500, Museo Sans" font-weight="500"><tspan x="0" y="0">INSTITUCIONES</tspan></text><g id="Capa_2" data-name="Capa 2" transform="translate(65.679 41.718)"><g id="Capa_1" data-name="Capa 1"><path id="Trazado_206" data-name="Trazado 206" d="M38.973,24.2H35.167V18.3A1.311,1.311,0,0,0,34.6,17.06L20.654,8.138,20.6,8.109V6.089h6.135a.658.658,0,0,0,.652-.658V.658A.652.652,0,0,0,26.738,0H19.944a.658.658,0,0,0-.658.658V8.1h-.04L5.076,17.054A1.3,1.3,0,0,0,4.5,18.308a.853.853,0,0,0,0,.12V24.2H.658A.652.652,0,0,0,0,24.855V36.667a.652.652,0,0,0,.658.652H38.973a.652.652,0,0,0,.652-.652V24.855A.652.652,0,0,0,38.973,24.2ZM26.079,2.072V4.006H20.6V2.072ZM19.939,10.8l9.849,6.3H9.9ZM1.311,25.513H4.464V34.7H1.311ZM16.024,34.7H11.812V26.56a2.1,2.1,0,0,1,4.195,0Zm11.286,0H23.092V26.56a2.1,2.1,0,1,1,4.2,0Zm5.248,0H28.615V26.56a3.434,3.434,0,0,0-6.822,0V34.7h-4.47V26.56a3.434,3.434,0,0,0-6.827,0V34.7H7.062V19.738H32.541Zm5.774,0H35.185V25.513h3.159Z" fill="#fff"></path></g></g></g></svg> 