<?xml version="1.0" encoding="UTF-8"?> <svg xmlns="http://www.w3.org/2000/svg" width="116" height="114.137" viewBox="0 0 116 114.137"><g id="Noticias_t" transform="translate(-472 -619.863)"><g id="Noticias" transform="translate(488.609 619.863)"><path id="Trazado_378" data-name="Trazado 378" d="M542.708,276.148H481.516a2.334,2.334,0,0,0-2.334,2.334v8.024h-13.9a2.334,2.334,0,0,0-2.334,2.334v35.108a9.517,9.517,0,0,0,9.507,9.507h62.134a10.462,10.462,0,0,0,10.451-10.45V278.482A2.334,2.334,0,0,0,542.708,276.148ZM473.4,328.787h-.943a4.844,4.844,0,0,1-4.838-4.838V291.176h11.562v32.774a4.844,4.844,0,0,1-4.838,4.838Zm66.973-5.781a5.788,5.788,0,0,1-5.782,5.781H482.512a9.43,9.43,0,0,0,1.338-4.838V280.817h56.523Z" transform="translate(-462.951 -276.148)" fill="#fff"></path><path id="Trazado_379" data-name="Trazado 379" d="M555.822,318.833h13.007a2.335,2.335,0,0,0,2.334-2.334V303.491a2.334,2.334,0,0,0-2.334-2.334H555.822a2.334,2.334,0,0,0-2.334,2.334V316.5A2.334,2.334,0,0,0,555.822,318.833Zm2.334-13.008H566.5v8.339h-8.338Z" transform="translate(-500.651 -286.562)" fill="#fff"></path><path id="Trazado_380" data-name="Trazado 380" d="M510.353,305.826h16.467a2.334,2.334,0,1,0,0-4.669H510.353a2.334,2.334,0,1,0,0,4.669Z" transform="translate(-481.718 -286.562)" fill="#fff"></path><path id="Trazado_381" data-name="Trazado 381" d="M510.353,325.917h16.467a2.334,2.334,0,1,0,0-4.669H510.353a2.334,2.334,0,1,0,0,4.669Z" transform="translate(-481.718 -294.928)" fill="#fff"></path><path id="Trazado_382" data-name="Trazado 382" d="M510.353,346.007H549.9a2.334,2.334,0,0,0,0-4.669H510.353a2.334,2.334,0,1,0,0,4.669Z" transform="translate(-481.718 -303.294)" fill="#fff"></path></g><text id="Noticias-2" data-name="Noticias" transform="translate(530 727)" fill="#fff" font-size="26" font-family="MuseoSans-500, Museo Sans" font-weight="500" letter-spacing="0.1em"><tspan x="-57.98" y="0">Noticias</tspan></text></g></svg> 