<?xml version="1.0" encoding="UTF-8"?> <svg xmlns="http://www.w3.org/2000/svg" width="1504" height="1072" viewBox="0 0 1504 1072"><g id="Grupo_127" data-name="Grupo 127" transform="translate(-208 -5966)"><rect id="Rectángulo_69" data-name="Rectángulo 69" width="532" height="118" rx="59" transform="translate(694 5966)" fill="#fff"></rect><g id="Rectángulo_70" data-name="Rectángulo 70" transform="translate(373 6368)" fill="#596477" stroke="#fff" stroke-width="4"><rect width="390" height="86" rx="43" stroke="none"></rect><rect x="2" y="2" width="386" height="82" rx="41" fill="none"></rect></g><g id="Rectángulo_75" data-name="Rectángulo 75" transform="translate(1052 6147)" fill="#596477" stroke="#fff" stroke-width="4"><rect width="390" height="86" rx="43" stroke="none"></rect><rect x="2" y="2" width="386" height="82" rx="41" fill="none"></rect></g><g id="Rectángulo_73" data-name="Rectángulo 73" transform="translate(633 6588)" fill="#596477" stroke="#fff" stroke-width="4"><rect width="294" height="173" rx="59" stroke="none"></rect><rect x="2" y="2" width="290" height="169" rx="57" fill="none"></rect></g><g id="Rectángulo_76" data-name="Rectángulo 76" transform="translate(1418 6588)" fill="#596477" stroke="#fff" stroke-width="4"><rect width="294" height="173" rx="59" stroke="none"></rect><rect x="2" y="2" width="290" height="169" rx="57" fill="none"></rect></g><g id="Rectángulo_74" data-name="Rectángulo 74" transform="translate(208 6588)" fill="#596477" stroke="#fff" stroke-width="4"><rect width="294" height="173" rx="59" stroke="none"></rect><rect x="2" y="2" width="290" height="169" rx="57" fill="none"></rect></g><g id="Rectángulo_77" data-name="Rectángulo 77" transform="translate(993 6588)" fill="#596477" stroke="#fff" stroke-width="4"><rect width="294" height="173" rx="59" stroke="none"></rect><rect x="2" y="2" width="290" height="169" rx="57" fill="none"></rect></g><g id="Rectángulo_72" data-name="Rectángulo 72" transform="translate(1158 6368)" fill="#596477" stroke="#fff" stroke-width="4"><rect width="390" height="86" rx="43" stroke="none"></rect><rect x="2" y="2" width="386" height="82" rx="41" fill="none"></rect></g><text id="Nombre_de_la_Institución" data-name="Nombre de la Institución" transform="translate(736 6038)" fill="#2b3345" font-size="38" font-family="MuseoSans-700, Museo Sans" font-weight="700"><tspan x="0" y="0">Nombre de la Institución</tspan></text><line id="Línea_2" data-name="Línea 2" y2="210" transform="translate(960.5 6084.5)" fill="none" stroke="#fff" stroke-width="4"></line><line id="Línea_3" data-name="Línea 3" y2="60" transform="translate(567.5 6454.5)" fill="none" stroke="#fff" stroke-width="4"></line><line id="Línea_5" data-name="Línea 5" y2="60" transform="translate(1352.5 6454.5)" fill="none" stroke="#fff" stroke-width="4"></line><path id="Trazado_718" data-name="Trazado 718" d="M9046,6218v-73.261h784V6218" transform="translate(-8477.499 150)" fill="none" stroke="#fff" stroke-width="4"></path><path id="Trazado_719" data-name="Trazado 719" d="M9046,6218v-73.261h424.561V6218" transform="translate(-8690.78 370)" fill="none" stroke="#fff" stroke-width="4"></path><path id="Trazado_720" data-name="Trazado 720" d="M9046,6218v-73.261h424.561V6218" transform="translate(-7905.78 370)" fill="none" stroke="#fff" stroke-width="4"></path><line id="Línea_4" data-name="Línea 4" x1="92" transform="translate(960.5 6189.5)" fill="none" stroke="#fff" stroke-linecap="round" stroke-width="4" stroke-dasharray="10 15"></line><g id="Grupo_125" data-name="Grupo 125" transform="translate(0 -33)"><path id="Trazado_721" data-name="Trazado 721" d="M8665.85,6794.056v258.233h49.441" transform="translate(-8396)" fill="none" stroke="#fff" stroke-width="4"></path><line id="Línea_6" data-name="Línea 6" x2="50" transform="translate(269.5 6994.409)" fill="none" stroke="#fff" stroke-width="4"></line><line id="Línea_7" data-name="Línea 7" x2="50" transform="translate(269.5 6933.558)" fill="none" stroke="#fff" stroke-width="4"></line><line id="Línea_8" data-name="Línea 8" x2="50" transform="translate(269.5 6872.706)" fill="none" stroke="#fff" stroke-width="4"></line><text id="Texto_texto" data-name="Texto texto" transform="translate(338 6884)" fill="#fff" font-size="31" font-family="MuseoSans-700, Museo Sans" font-weight="700"><tspan x="0" y="0">Texto texto</tspan></text><text id="Texto_texto-2" data-name="Texto texto" transform="translate(338 6944)" fill="#fff" font-size="31" font-family="MuseoSans-700, Museo Sans" font-weight="700"><tspan x="0" y="0">Texto texto</tspan></text><text id="Texto_texto-3" data-name="Texto texto" transform="translate(338 7003)" fill="#fff" font-size="31" font-family="MuseoSans-700, Museo Sans" font-weight="700"><tspan x="0" y="0">Texto texto</tspan></text><text id="Texto_texto-4" data-name="Texto texto" transform="translate(338 7063)" fill="#fff" font-size="31" font-family="MuseoSans-700, Museo Sans" font-weight="700"><tspan x="0" y="0">Texto texto</tspan></text></g><g id="Grupo_126" data-name="Grupo 126" transform="translate(792 -33)"><path id="Trazado_721-2" data-name="Trazado 721" d="M8665.85,6794.056v258.233h49.441" transform="translate(-8396)" fill="none" stroke="#fff" stroke-width="4"></path><line id="Línea_6-2" data-name="Línea 6" x2="50" transform="translate(269.5 6994.409)" fill="none" stroke="#fff" stroke-width="4"></line><line id="Línea_7-2" data-name="Línea 7" x2="50" transform="translate(269.5 6933.558)" fill="none" stroke="#fff" stroke-width="4"></line><line id="Línea_8-2" data-name="Línea 8" x2="50" transform="translate(269.5 6872.706)" fill="none" stroke="#fff" stroke-width="4"></line><text id="Texto_texto-5" data-name="Texto texto" transform="translate(338 6884)" fill="#fff" font-size="31" font-family="MuseoSans-700, Museo Sans" font-weight="700"><tspan x="0" y="0">Texto texto</tspan></text><text id="Texto_texto-6" data-name="Texto texto" transform="translate(338 6944)" fill="#fff" font-size="31" font-family="MuseoSans-700, Museo Sans" font-weight="700"><tspan x="0" y="0">Texto texto</tspan></text><text id="Texto_texto-7" data-name="Texto texto" transform="translate(338 7003)" fill="#fff" font-size="31" font-family="MuseoSans-700, Museo Sans" font-weight="700"><tspan x="0" y="0">Texto texto</tspan></text><text id="Texto_texto-8" data-name="Texto texto" transform="translate(338 7063)" fill="#fff" font-size="31" font-family="MuseoSans-700, Museo Sans" font-weight="700"><tspan x="0" y="0">Texto texto</tspan></text></g></g></svg> 