<?xml version="1.0" encoding="UTF-8"?> <svg xmlns="http://www.w3.org/2000/svg" width="73.057" height="73.058" viewBox="0 0 73.057 73.058"><path id="Trazado_402" data-name="Trazado 402" d="M1398.452,545.1a2.341,2.341,0,0,0-2.243-1.388l-7.144.33.33-7.144a2.334,2.334,0,0,0-3.982-1.758l-9.254,9.253a2.338,2.338,0,0,0-.682,1.543l-.407,8.8-1.964,1.965a28.893,28.893,0,1,0,3.3,3.3l1.965-1.966,8.8-.406a2.334,2.334,0,0,0,1.543-.682l9.253-9.254A2.335,2.335,0,0,0,1398.452,545.1Zm-19.835,33.567A24.2,24.2,0,1,1,1369.8,560l-3.476,3.477a19.327,19.327,0,1,0,3.3,3.3l3.477-3.476A24.068,24.068,0,0,1,1378.617,578.664Zm-9.553,0a14.648,14.648,0,1,1-6.073-11.852l-3.623,3.622a9.643,9.643,0,1,0,3.3,3.3l3.623-3.623A14.542,14.542,0,0,1,1369.064,578.664Zm-9.688,0a4.942,4.942,0,1,1-3.512-4.726l-3.076,3.075a2.334,2.334,0,1,0,3.3,3.3l3.075-3.075A4.907,4.907,0,0,1,1359.376,578.664ZM1386.052,553l-6.241.288.288-6.241,4.354-4.354-.17,3.684a2.336,2.336,0,0,0,2.44,2.439l3.683-.17Z" transform="translate(-1325.594 -534.452)" fill="#2e3645"></path></svg> 