<?xml version="1.0" encoding="UTF-8"?> <svg xmlns="http://www.w3.org/2000/svg" id="Grupo_24" data-name="Grupo 24" width="59.822" height="59.822" viewBox="0 0 59.822 59.822"><g id="Grupo_23" data-name="Grupo 23" transform="translate(26.853 43.75)"><circle id="Elipse_2" data-name="Elipse 2" cx="2.815" cy="2.815" r="2.815" fill="#2e3645"></circle></g><path id="Trazado_403" data-name="Trazado 403" d="M1635.018,336.1a29.911,29.911,0,1,1,29.911-29.911A29.945,29.945,0,0,1,1635.018,336.1Zm0-55.154a25.242,25.242,0,1,0,25.243,25.243A25.271,25.271,0,0,0,1635.018,280.948Z" transform="translate(-1605.107 -276.279)" fill="#2e3645"></path><path id="Trazado_404" data-name="Trazado 404" d="M1648.717,323.876a2.334,2.334,0,0,1-2.334-2.334,11.493,11.493,0,0,1,3.578-8.422,23.258,23.258,0,0,1,2.569-2.278,17.148,17.148,0,0,0,2.187-1.953,4.757,4.757,0,0,0,1.019-2.1,4.523,4.523,0,0,0,.063-1.866,6.334,6.334,0,0,0-12.539,1.27v2.21a2.334,2.334,0,0,1-4.669,0v-2.162a11,11,0,0,1,21.783-2.246,9.13,9.13,0,0,1-.08,3.807,9.431,9.431,0,0,1-2.064,4.163,20.856,20.856,0,0,1-2.783,2.525,19.514,19.514,0,0,0-2.074,1.819c-1.757,1.88-2.321,3.152-2.321,5.235A2.334,2.334,0,0,1,1648.717,323.876Z" transform="translate(-1619.05 -284.153)" fill="#2e3645"></path></svg> 