<?xml version="1.0" encoding="UTF-8"?> <svg xmlns="http://www.w3.org/2000/svg" width="128" height="139.02" viewBox="0 0 128 139.02"><g id="Servicios_en_linea_t" transform="translate(-1038 -1069.98)"><g id="Servicios_en_linea" transform="translate(1068.027 1069.98)"><path id="Trazado_397" data-name="Trazado 397" d="M1111.19,809.256h-58.432a4.784,4.784,0,0,0-4.778,4.778v35.138a4.784,4.784,0,0,0,4.778,4.779h20.578a9.97,9.97,0,0,1-1.943,4.348,10.217,10.217,0,0,1-5.542,3.562,2.335,2.335,0,0,0,.544,4.6c.077,0,.154-.006.232-.013.044,0,.085.013.129.013h30.438a2.329,2.329,0,0,0,.434-.044c.046-.009.09-.023.135-.035a2.286,2.286,0,0,0,.271-.084c.052-.02.1-.044.153-.068a2.168,2.168,0,0,0,.227-.123c.047-.029.093-.058.138-.09a2.4,2.4,0,0,0,.211-.174c.035-.032.072-.062.1-.1a2.3,2.3,0,0,0,.213-.257c.017-.024.037-.045.054-.069a2.333,2.333,0,0,0,.2-.376c.013-.031.02-.064.032-.1a2.381,2.381,0,0,0,.092-.277c0-.013,0-.025.005-.037.016-.074.022-.152.031-.229a2.409,2.409,0,0,0,.025-.246c0-.012,0-.023,0-.034,0-.055-.013-.107-.016-.161a2.387,2.387,0,0,0-.027-.266c-.014-.072-.037-.141-.057-.211s-.04-.149-.069-.221a2.243,2.243,0,0,0-.1-.207c-.033-.065-.065-.131-.1-.193s-.088-.119-.133-.177-.093-.121-.146-.176-.1-.1-.158-.142a2.32,2.32,0,0,0-.183-.151,2.191,2.191,0,0,0-.191-.114,2.237,2.237,0,0,0-.2-.109,2.36,2.36,0,0,0-.239-.083c-.056-.018-.107-.044-.165-.057a10.216,10.216,0,0,1-5.542-3.562,9.964,9.964,0,0,1-1.943-4.348h20.937a4.783,4.783,0,0,0,4.778-4.779V814.034A4.783,4.783,0,0,0,1111.19,809.256Zm-22.674,51.917q.254.324.515.623h-14.474q.262-.3.515-.623a14.71,14.71,0,0,0,2.985-7.221h7.474A14.706,14.706,0,0,0,1088.516,861.173Zm22.783-12a.11.11,0,0,1-.109.11h-58.432a.11.11,0,0,1-.11-.11V814.034a.11.11,0,0,1,.11-.11h58.432a.11.11,0,0,1,.109.11Z" transform="translate(-1047.98 -809.256)" fill="#fff"></path><path id="Trazado_398" data-name="Trazado 398" d="M1097.849,830.032a.884.884,0,0,0-1.455.708l.623,16.079a.884.884,0,0,0,1.6.485l2.46-3.394,1.792,3.678a2.367,2.367,0,0,0,3.164,1.091h0a2.367,2.367,0,0,0,1.091-3.164l-1.791-3.677,4.188.156a.884.884,0,0,0,.6-1.558Z" transform="translate(-1068.139 -817.819)" fill="#fff"></path></g><text id="Servicios_En_línea" data-name="Servicios En línea" transform="translate(1102 1171)" fill="#fff" font-size="26" font-family="MuseoSans-500, Museo Sans" font-weight="500" letter-spacing="0.1em"><tspan x="-63.635" y="0">Servicios</tspan><tspan x="-56.329" y="31">En línea</tspan></text></g></svg> 