<?xml version="1.0" encoding="UTF-8"?> <svg xmlns="http://www.w3.org/2000/svg" width="158" height="117.514" viewBox="0 0 158 117.514"><g id="Solicitudes_t" transform="translate(-1023 -616.486)"><g id="Solicitudes" transform="translate(1068.066 616.486)"><path id="Trazado_399" data-name="Trazado 399" d="M1091.963,296.131h13.669a2.334,2.334,0,0,0,0-4.669h-13.669a2.334,2.334,0,0,0,0,4.669Z" transform="translate(-1061.363 -279.148)" fill="#fff"></path><path id="Trazado_400" data-name="Trazado 400" d="M1115.005,272.867a7.168,7.168,0,0,0-10.126,0l-3.041,3.041-4.4,4.4V272.7a2.335,2.335,0,0,0-2.334-2.334h-39.965c-.018,0-.036.005-.054.005a2.454,2.454,0,0,0-.364.036c-.032.006-.063.014-.094.021a2.333,2.333,0,0,0-.323.1c-.048.019-.093.04-.139.061a2.3,2.3,0,0,0-.231.124c-.045.027-.089.053-.132.083a2.348,2.348,0,0,0-.249.2c-.02.018-.043.032-.062.051l-11.609,11.609c-.016.017-.028.037-.044.054a2.389,2.389,0,0,0-.214.26c-.029.041-.053.083-.078.125a2.276,2.276,0,0,0-.13.243c-.019.043-.039.085-.056.128a2.244,2.244,0,0,0-.108.353c0,.012-.008.024-.01.036a2.349,2.349,0,0,0-.04.406c0,.015,0,.03,0,.046v47.783a2.335,2.335,0,0,0,2.334,2.334H1095.1a2.335,2.335,0,0,0,2.334-2.334V300.561l14.527-14.527,3.042-3.041A7.17,7.17,0,0,0,1115.005,272.867Zm-6.824,3.3a2.491,2.491,0,0,1,3.524,3.523l-1.391,1.391-3.523-3.524Zm-55.376,2.165v3.64h-3.64Zm39.963,51.421h-46.906V286.642h9.277a2.334,2.334,0,0,0,2.334-2.334v-9.277h35.295v9.947l-7.134,7.134c-.058,0-.113-.017-.171-.017H1051.7a2.334,2.334,0,0,0,0,4.669h29.285l-2.29,2.289c-.038.039-.066.084-.1.125a2.243,2.243,0,0,0-.17.208,2.206,2.206,0,0,0-.13.229c-.026.05-.059.093-.082.145l-.776,1.754H1051.7a2.334,2.334,0,0,0,0,4.669h23.671l-2.1,4.75H1051.7a2.334,2.334,0,0,0,0,4.669h23.1a2.336,2.336,0,0,0,.477-.051c.034-.007.067-.022.1-.032a2.236,2.236,0,0,0,.363-.122c.011,0,.021-.006.031-.01l12.381-5.738c.047-.022.086-.053.131-.077a1.676,1.676,0,0,0,.417-.291c.04-.034.084-.061.122-.1l3.949-3.949ZM1081.1,304.762l2.054,2.054-3.725,1.727Zm6.068-.535-3.523-3.523,19.843-19.844,3.524,3.524Z" transform="translate(-1041.194 -270.362)" fill="#fff"></path></g><text id="Solicitudes-2" data-name="Solicitudes" transform="translate(1102 727)" fill="#fff" font-size="26" font-family="MuseoSans-500, Museo Sans" font-weight="500" letter-spacing="0.1em"><tspan x="-78.52" y="0">Solicitudes</tspan></text></g></svg> 