<?xml version="1.0" encoding="UTF-8"?> <svg xmlns="http://www.w3.org/2000/svg" width="72.031" height="64.728" viewBox="0 0 72.031 64.728"><path id="Videos" d="M831.661,547.94a2.332,2.332,0,0,0-2.219-.177l-12.507,5.549v-9.388a2.335,2.335,0,0,0-2.334-2.334H763.026a2.334,2.334,0,0,0-2.334,2.334v40.138a2.334,2.334,0,0,0,2.334,2.334h20.151l-15.937,15.937a2.334,2.334,0,1,0,3.3,3.3l18.271-18.271,18.271,18.271a2.334,2.334,0,0,0,3.3-3.3L794.449,586.4H814.6a2.335,2.335,0,0,0,2.334-2.334v-9.388l12.507,5.548a2.334,2.334,0,0,0,3.281-2.134V549.9A2.334,2.334,0,0,0,831.661,547.94Zm-19.4,33.787h-46.9V546.258h46.9v35.469Zm15.789-7.229-11.12-4.933V558.419l11.12-4.933Z" transform="translate(-760.691 -541.589)" fill="#fff"></path></svg> 