<?xml version="1.0" encoding="UTF-8"?> <svg xmlns="http://www.w3.org/2000/svg" width="67.01" height="67.009" viewBox="0 0 67.01 67.009"><g id="Whatsapp" transform="translate(0 0)"><path id="Trazado_412" data-name="Trazado 412" d="M896.272,1212.1c-.589-.293-3.454-1.709-4-1.9a1.119,1.119,0,0,0-1.439.437,24.324,24.324,0,0,1-1.566,2.075,1.269,1.269,0,0,1-1.414.223,14.747,14.747,0,0,1-4.7-2.9A17.769,17.769,0,0,1,879.9,1206c-.341-.589-.035-.93.235-1.248.3-.366.577-.627.872-.968a3.459,3.459,0,0,0,.65-.92,1.2,1.2,0,0,0-.085-1.085c-.14-.3-1.318-3.173-1.8-4.339-.389-.93-.684-.965-1.274-.99-.2-.01-.423-.023-.672-.023a2.914,2.914,0,0,0-2.05.719,6.4,6.4,0,0,0-2.05,4.88c0,2.878,2.1,5.66,2.381,6.048s4.091,6.377,9.984,8.818c4.607,1.91,5.976,1.732,7.024,1.51,1.531-.331,3.451-1.464,3.935-2.83a4.992,4.992,0,0,0,.343-2.782C897.25,1212.541,896.861,1212.4,896.272,1212.1Z" transform="translate(-851.872 -1173.802)" fill="#969ba9"></path><path id="Trazado_413" data-name="Trazado 413" d="M877.491,1165.64a33.5,33.5,0,1,0,33.5,33.5A33.5,33.5,0,0,0,877.491,1165.64Zm.005,53.556a19.881,19.881,0,0,1-11.032-3.313l-7.707,2.464,2.5-7.449a20.041,20.041,0,0,1,16.23-31.806h.01a20.052,20.052,0,0,1,0,40.1Z" transform="translate(-843.987 -1165.64)" fill="#969ba9"></path></g></svg> 