<svg id="Avisos" xmlns="http://www.w3.org/2000/svg" width="57.404" height="73.034" viewBox="0 0 57.404 73.034">
  <path id="Trazado_376" data-name="Trazado 376" d="M268.791,313.331l-5.811-8.822V292.935a21.722,21.722,0,0,0-13.666-20.147,8.24,8.24,0,1,0-16.05,0A21.722,21.722,0,0,0,219.6,292.935V304.51l-5.811,8.821a7.272,7.272,0,0,0,6.073,11.272h42.862a7.271,7.271,0,0,0,6.072-11.271Zm-31.073-42.413a3.572,3.572,0,1,1,7.086.613,21.517,21.517,0,0,0-7.028,0A3.555,3.555,0,0,1,237.718,270.919Zm25,49.015H219.857a2.6,2.6,0,0,1-2.174-4.035l6.2-9.405a2.335,2.335,0,0,0,.385-1.284V292.935a17.024,17.024,0,1,1,34.048,0V305.21a2.335,2.335,0,0,0,.385,1.284l6.2,9.405a2.6,2.6,0,0,1-2.173,4.035Z" transform="translate(-212.585 -262.675)" fill="#fff"/>
  <path id="Trazado_377" data-name="Trazado 377" d="M263.29,372.489a2.333,2.333,0,0,0-3.152.982,5.964,5.964,0,0,1-10.555,0,2.334,2.334,0,1,0-4.131,2.175,10.632,10.632,0,0,0,18.82,0A2.334,2.334,0,0,0,263.29,372.489Z" transform="translate(-226.159 -308.29)" fill="#fff"/>
</svg>
