<svg id="Calendario" xmlns="http://www.w3.org/2000/svg" width="70.125" height="66.793" viewBox="0 0 70.125 66.793">
  <rect id="Rectángulo_30" data-name="Rectángulo 30" width="8.087" height="7.24" transform="translate(11.211 28.249)" fill="#fff"/>
  <rect id="Rectángulo_31" data-name="Rectángulo 31" width="8.087" height="7.24" transform="translate(11.211 40.617)" fill="#fff"/>
  <rect id="Rectángulo_32" data-name="Rectángulo 32" width="8.087" height="7.24" transform="translate(24.483 28.249)" fill="#fff"/>
  <rect id="Rectángulo_33" data-name="Rectángulo 33" width="8.087" height="7.24" transform="translate(24.483 40.617)" fill="#fff"/>
  <rect id="Rectángulo_34" data-name="Rectángulo 34" width="8.087" height="7.24" transform="translate(37.755 28.249)" fill="#fff"/>
  <rect id="Rectángulo_35" data-name="Rectángulo 35" width="8.087" height="7.24" transform="translate(37.755 40.617)" fill="#fff"/>
  <rect id="Rectángulo_36" data-name="Rectángulo 36" width="8.087" height="7.24" transform="translate(51.027 28.249)" fill="#fff"/>
  <path id="Trazado_384" data-name="Trazado 384" d="M271.811,580.436V548.1a2.334,2.334,0,0,0-2.334-2.334H262.36v-3.617a2.335,2.335,0,0,0-2.334-2.334H252.7a2.334,2.334,0,0,0-2.334,2.334v3.617H223.136v-3.617a2.334,2.334,0,0,0-2.334-2.334h-7.328a2.334,2.334,0,0,0-2.334,2.334v3.617h-7.117a2.334,2.334,0,0,0-2.334,2.334v48.62a2.334,2.334,0,0,0,2.334,2.334h3.19v5.219a2.335,2.335,0,0,0,2.334,2.334h59.933a2.335,2.335,0,0,0,2.334-2.334V580.436Zm-16.453,10.651v-8.317h8.431Zm-.326-46.6h2.659v5.245h-2.659Zm-39.224,0h2.659v5.245h-2.659Zm-4.669,5.951v1.628a2.335,2.335,0,0,0,2.334,2.334H220.8a2.335,2.335,0,0,0,2.334-2.334v-1.628h27.227v1.628A2.335,2.335,0,0,0,252.7,554.4h7.328a2.335,2.335,0,0,0,2.334-2.334v-1.628h4.782v6.248H206.356v-6.248Zm-4.783,10.917h60.786V578.1H253.023a2.334,2.334,0,0,0-2.334,2.334V594.39H206.356Zm5.524,40.587v-2.885h41.143a2.334,2.334,0,0,0,1.642-.675l12.479-12.354v15.913Z" transform="translate(-201.687 -539.819)" fill="#fff"/>
</svg>
