<svg xmlns="http://www.w3.org/2000/svg" width="180" height="149.393" viewBox="0 0 180 149.393">
  <g id="Plan_t" transform="translate(-1318 -839.607)">
    <path id="Plan" d="M1398.452,545.1a2.341,2.341,0,0,0-2.243-1.388l-7.144.33.33-7.144a2.334,2.334,0,0,0-3.982-1.758l-9.254,9.253a2.338,2.338,0,0,0-.682,1.543l-.407,8.8-1.964,1.965a28.893,28.893,0,1,0,3.3,3.3l1.965-1.966,8.8-.406a2.334,2.334,0,0,0,1.543-.682l9.253-9.254A2.335,2.335,0,0,0,1398.452,545.1Zm-19.835,33.567A24.2,24.2,0,1,1,1369.8,560l-3.476,3.477a19.327,19.327,0,1,0,3.3,3.3l3.477-3.476A24.068,24.068,0,0,1,1378.617,578.664Zm-9.553,0a14.648,14.648,0,1,1-6.073-11.852l-3.623,3.622a9.643,9.643,0,1,0,3.3,3.3l3.623-3.623A14.542,14.542,0,0,1,1369.064,578.664Zm-9.688,0a4.942,4.942,0,1,1-3.512-4.726l-3.076,3.075a2.334,2.334,0,1,0,3.3,3.3l3.075-3.075A4.907,4.907,0,0,1,1359.376,578.664ZM1386.052,553l-6.241.288.288-6.241,4.354-4.354-.17,3.684a2.336,2.336,0,0,0,2.44,2.439l3.683-.17Z" transform="translate(45.447 305.155)" fill="#fff"/>
    <text id="Plan_institucional" data-name="Plan
institucional" transform="translate(1408 951)" fill="#fff" font-size="26" font-family="MuseoSans-500, Museo Sans" font-weight="500" letter-spacing="0.1em"><tspan x="-29.939" y="0">Plan</tspan><tspan x="-89.427" y="31">institucional</tspan></text>
  </g>
</svg>
