<svg xmlns="http://www.w3.org/2000/svg" width="184" height="144.501" viewBox="0 0 184 144.501">
  <g id="Sitios_t" transform="translate(-1010 -844.499)">
    <path id="Sitios" d="M1083.656,542.834a31.637,31.637,0,1,0,31.638,31.637A31.673,31.673,0,0,0,1083.656,542.834Zm26.861,29.3h-8.389c-.359-8.769-2.72-16.442-6.333-21.736A27.011,27.011,0,0,1,1110.517,572.137Zm-29.2-24.224v24.224h-11.464C1070.418,560.078,1075.264,550.012,1081.321,547.912Zm0,28.893V601.03c-6.057-2.1-10.9-12.166-11.464-24.224Zm4.669,24.224V576.805h11.465C1096.894,588.864,1092.048,598.931,1085.99,601.03Zm0-28.893V547.912c6.058,2.1,10.9,12.166,11.465,24.224ZM1071.516,550.4c-3.612,5.294-5.974,12.967-6.332,21.736H1056.8A27.012,27.012,0,0,1,1071.516,550.4Zm-14.721,26.4h8.389c.358,8.768,2.72,16.442,6.332,21.735A27.011,27.011,0,0,1,1056.8,576.805Zm39,21.736c3.612-5.294,5.974-12.967,6.333-21.736h8.389A27.011,27.011,0,0,1,1095.8,598.541Z" transform="translate(18.365 301.665)" fill="#fff"/>
    <text id="Sitios_relacionados" data-name="Sitios
relacionados" transform="translate(1102 951)" fill="#fff" font-size="26" font-family="MuseoSans-500, Museo Sans" font-weight="500" letter-spacing="0.1em"><tspan x="-38.662" y="0">Sitios</tspan><tspan x="-91.572" y="31">relacionados</tspan></text>
  </g>
</svg>
