<svg xmlns="http://www.w3.org/2000/svg" width="114" height="142.129" viewBox="0 0 114 142.129">
  <g id="Trabajo_t" transform="translate(-473 -1066.871)">
    <path id="Trabajo" d="M544.01,816.021a2.341,2.341,0,0,0-.041-.408c-.005-.03-.011-.06-.018-.089a2.315,2.315,0,0,0-.115-.372c-.01-.024-.022-.047-.033-.071a2.348,2.348,0,0,0-.168-.31c-.012-.018-.022-.037-.034-.055l-.016-.027a2.415,2.415,0,0,0-.233-.276c-.019-.019-.038-.037-.058-.056a2.24,2.24,0,0,0-.308-.254l-.014-.008a2.259,2.259,0,0,0-.338-.184c-.027-.012-.054-.025-.082-.036a2.329,2.329,0,0,0-.372-.116l-.082-.015a2.343,2.343,0,0,0-.421-.042H519.019v-3.884a5.9,5.9,0,0,0-5.89-5.89H499.747a5.9,5.9,0,0,0-5.89,5.89V813.7H471.448a2.343,2.343,0,0,0-.421.042l-.082.015a2.356,2.356,0,0,0-.372.116c-.027.011-.054.024-.081.036a2.265,2.265,0,0,0-.338.184l-.014.008a2.242,2.242,0,0,0-.308.254c-.02.019-.039.037-.058.056a2.406,2.406,0,0,0-.233.276l-.016.027c-.012.018-.022.037-.034.055a2.349,2.349,0,0,0-.169.31c-.011.024-.023.047-.033.071a2.344,2.344,0,0,0-.116.373c-.006.029-.012.059-.018.089a2.332,2.332,0,0,0-.041.408c0,.005,0,.01,0,.015v42.849a8.48,8.48,0,0,0,8.471,8.47H535.54a8.481,8.481,0,0,0,8.471-8.47V816.036C544.012,816.031,544.01,816.026,544.01,816.021Zm-45.485-6.2a1.223,1.223,0,0,1,1.221-1.221h13.382a1.223,1.223,0,0,1,1.221,1.221V813.7H498.525Zm-2.334,8.553h42.18l-6.881,19.376a3.394,3.394,0,0,1-3.07,1.948H516.3V838.03a2.334,2.334,0,0,0-2.334-2.334H498.905a2.334,2.334,0,0,0-2.334,2.334v1.665H484.7a3.393,3.393,0,0,1-3.069-1.947l-6.881-19.376Zm15.445,21.993v3.08h-10.4v-3.08Zm23.9,22.323H477.585a3.806,3.806,0,0,1-3.8-3.8v-29.3l3.486,9.817c.02.055.041.109.065.163a8.064,8.064,0,0,0,7.37,4.8h11.867v1.414a2.334,2.334,0,0,0,2.334,2.334h15.065a2.334,2.334,0,0,0,2.334-2.334v-1.414h12.116a8.065,8.065,0,0,0,7.371-4.8c.024-.054.046-.108.065-.163l3.486-9.817v29.3A3.807,3.807,0,0,1,535.54,862.687Z" transform="translate(23.092 262.943)" fill="#fff"/>
    <text id="Nuestro_trabajo" data-name="Nuestro
trabajo" transform="translate(530 1171)" fill="#fff" font-size="26" font-family="MuseoSans-500, Museo Sans" font-weight="500" letter-spacing="0.1em"><tspan x="-56.056" y="0">Nuestro</tspan><tspan x="-50.193" y="31">trabajo</tspan></text>
  </g>
</svg>
