<svg xmlns="http://www.w3.org/2000/svg" width="96" height="118.904" viewBox="0 0 96 118.904">
  <g id="Logros_t" transform="translate(-1655 -839.096)">
    <path id="Logros" d="M1656.784,579.411a5.829,5.829,0,0,0,3.4-5.246l.042-5.1a1.158,1.158,0,0,1,.216-.665l2.965-4.153a5.833,5.833,0,0,0,0-6.773l-2.965-4.153a1.159,1.159,0,0,1-.216-.665l-.042-5.1a5.83,5.83,0,0,0-3.985-5.481l-4.837-1.613a1.156,1.156,0,0,1-.567-.413l-3.025-4.1a5.829,5.829,0,0,0-6.453-2.1l-4.858,1.541a1.151,1.151,0,0,1-.7,0l-4.858-1.541a5.828,5.828,0,0,0-6.453,2.1l-3.025,4.1a1.15,1.15,0,0,1-.566.411l-4.839,1.614a5.832,5.832,0,0,0-3.985,5.481l-.042,5.1a1.158,1.158,0,0,1-.216.665l-2.965,4.153a5.831,5.831,0,0,0,0,6.773l2.965,4.153a1.163,1.163,0,0,1,.216.665l.042,5.1a5.83,5.83,0,0,0,3.51,5.3l-7.3,19.125a2.335,2.335,0,0,0,2.8,3.082l8.252-2.283,4.633,7.2a2.334,2.334,0,0,0,1.962,1.071,2.249,2.249,0,0,0,.242-.013,2.335,2.335,0,0,0,1.94-1.49l7.549-19.784.134-.042a1.151,1.151,0,0,1,.7,0l.279.089,7.532,19.738a2.334,2.334,0,0,0,1.939,1.49,2.258,2.258,0,0,0,.242.013,2.334,2.334,0,0,0,1.962-1.071l4.634-7.2,8.251,2.283a2.334,2.334,0,0,0,2.8-3.082Zm-31.424,20.765-3.065-4.762a2.335,2.335,0,0,0-2.585-.986l-5.458,1.51,5.714-14.976.889.3a1.16,1.16,0,0,1,.567.413l3.025,4.1a5.828,5.828,0,0,0,5.528,2.307Zm10.748-18.574a5.806,5.806,0,0,0-1.762.275l-4.857,1.54A1.16,1.16,0,0,1,1628.2,583l-3.024-4.1a5.806,5.806,0,0,0-2.848-2.071l-4.838-1.612a1.161,1.161,0,0,1-.794-1.091l-.042-5.1a5.8,5.8,0,0,0-1.084-3.337l-2.965-4.154a1.159,1.159,0,0,1,0-1.347l2.965-4.154a5.8,5.8,0,0,0,1.084-3.338l.042-5.1a1.16,1.16,0,0,1,.794-1.091l4.837-1.614a5.791,5.791,0,0,0,2.849-2.07l3.024-4.1a1.163,1.163,0,0,1,1.285-.417l4.858,1.541a5.8,5.8,0,0,0,3.524,0l4.858-1.541a1.157,1.157,0,0,1,1.284.417l3.025,4.1a5.805,5.805,0,0,0,2.847,2.071l4.838,1.613a1.159,1.159,0,0,1,.793,1.091l.042,5.1a5.811,5.811,0,0,0,1.085,3.338l2.965,4.153a1.159,1.159,0,0,1,0,1.347l-2.965,4.155a5.8,5.8,0,0,0-1.085,3.337l-.042,5.1a1.16,1.16,0,0,1-.793,1.091l-4.837,1.613a5.793,5.793,0,0,0-2.849,2.07l-3.025,4.1a1.162,1.162,0,0,1-1.284.418l-4.857-1.541A5.813,5.813,0,0,0,1636.108,581.6Zm16.528,12.826a2.334,2.334,0,0,0-2.585.986l-3.065,4.762-4.61-12.081a5.769,5.769,0,0,0,5.394-2.323l3.025-4.1a1.152,1.152,0,0,1,.567-.411l1-.334,5.728,15.013Z" transform="translate(66.965 305.52)" fill="#fff"/>
    <text id="Logros-2" data-name="Logros" transform="translate(1703 951)" fill="#fff" font-size="26" font-family="MuseoSans-500, Museo Sans" font-weight="500" letter-spacing="0.1em"><tspan x="-47.97" y="0">Logros</tspan></text>
  </g>
</svg>
