<svg xmlns="http://www.w3.org/2000/svg" width="85.164" height="55.721" viewBox="0 0 85.164 55.721">
  <path id="Programa" d="M821.357,830.718a11.657,11.657,0,1,0-15.845-.008,20.915,20.915,0,0,0-2.562,1.242,11.639,11.639,0,0,0-21.982-.069,20.91,20.91,0,0,0-2.438-1.173,11.657,11.657,0,1,0-15.844.008,21.194,21.194,0,0,0-13.247,19.623v5.6a2.334,2.334,0,1,0,4.669,0v-5.6a16.495,16.495,0,0,1,26.256-13.3,11.621,11.621,0,0,0,3.665,7.252,21.2,21.2,0,0,0-13.247,19.623,2.334,2.334,0,1,0,4.669,0,16.5,16.5,0,1,1,32.992,0,2.334,2.334,0,1,0,4.669,0,21.2,21.2,0,0,0-13.247-19.623,11.622,11.622,0,0,0,3.647-7.139c.019-.013.039-.02.057-.034a16.5,16.5,0,0,1,26.365,13.219v5.6a2.334,2.334,0,1,0,4.669,0v-5.6A21.2,21.2,0,0,0,821.357,830.718Zm-57.741-8.53a6.988,6.988,0,1,1,6.988,6.987A7,7,0,0,1,763.616,822.188Zm21.343,13.577a6.988,6.988,0,1,1,6.988,6.987A7,7,0,0,1,784.959,835.765Zm21.492-13.577a6.988,6.988,0,1,1,6.988,6.987A7,7,0,0,1,806.451,822.188Z" transform="translate(-749.439 -810.531)" fill="#fff"/>
</svg>
